<svg width="48" height="20" viewBox="0 0 48 20" fill="none" xmlns="http://www.w3.org/2000/svg">
<g clip-path="url(#clip0_1350_3248)">
<path d="M22.8461 9.68263V15.0351H21.1497V1.82255H25.6487C26.734 1.80148 27.7771 2.21239 28.5673 2.97101C29.3575 3.67695 29.8 4.69897 29.7789 5.7526C29.8 6.81675 29.3575 7.83877 28.5673 8.55526C27.7771 9.30337 26.8077 9.68263 25.6592 9.68263H22.8461ZM22.8461 3.44515V8.06003H25.6909C26.323 8.08111 26.9341 7.82829 27.3661 7.37517C28.2617 6.51122 28.2722 5.08881 27.4083 4.19323L27.3661 4.15108C26.9341 3.68748 26.323 3.43461 25.6909 3.45568L22.8461 3.44515ZM33.6879 5.69992C34.9417 5.69992 35.9321 6.03709 36.6592 6.70085C37.3862 7.37517 37.7444 8.29183 37.7444 9.46138V15.0246H36.1218V13.7708H36.048C35.3421 14.8033 34.4149 15.3196 33.2454 15.3196C32.2549 15.3196 31.4121 15.0246 30.7483 14.4345C30.095 13.8867 29.7263 13.0754 29.7473 12.2219C29.7473 11.2842 30.1055 10.5466 30.8115 9.98823C31.5174 9.42981 32.4657 9.15584 33.6458 9.15584C34.6573 9.15584 35.4791 9.34548 36.1324 9.70372V9.31391C36.1324 8.73441 35.8795 8.18647 35.437 7.81775C34.9839 7.41734 34.4044 7.19608 33.8038 7.19608C32.8555 7.19608 32.1075 7.59649 31.5491 8.39725L30.0529 7.4595C30.8642 6.28996 32.0759 5.69992 33.6879 5.69992ZM31.4964 12.2641C31.4964 12.7066 31.7071 13.1175 32.0548 13.3704C32.4341 13.6654 32.8977 13.8234 33.3718 13.8129C34.0883 13.8129 34.7732 13.5284 35.2789 13.0227C35.8373 12.4959 36.1218 11.8742 36.1218 11.1577C35.595 10.7363 34.8575 10.5256 33.9092 10.5256C33.2243 10.5256 32.6448 10.6942 32.1812 11.0208C31.7282 11.3579 31.4964 11.7688 31.4964 12.2641ZM47.0585 5.99494L41.39 19.0179H39.6409L41.7482 14.4662L38.0183 6.00547H39.8622L42.549 12.4959H42.5911L45.2146 6.00547L47.0585 5.99494Z" fill="#5F6368"/>
<path d="M15.9869 8.52362C15.9869 8.00737 15.9447 7.49106 15.8604 6.98535H8.7063V9.90389H12.8049C12.6363 10.8416 12.0884 11.6846 11.2877 12.2113V14.1079H13.7321C15.165 12.7909 15.9869 10.8416 15.9869 8.52362Z" fill="#4285F4"/>
<path d="M8.70623 15.9412C10.7503 15.9412 12.4782 15.2669 13.7321 14.1079L11.2877 12.2114C10.6028 12.675 9.72825 12.9384 8.70623 12.9384C6.72545 12.9384 5.05015 11.6002 4.44958 9.80908H1.9314V11.7688C3.21682 14.3187 5.84037 15.9412 8.70623 15.9412Z" fill="#34A853"/>
<path d="M4.44954 9.80939C4.13345 8.87165 4.13345 7.84963 4.44954 6.90134V4.95215H1.93136C1.39629 6.0068 1.11743 7.17279 1.11743 8.35539C1.11743 9.538 1.39629 10.7039 1.93136 11.7586L4.44954 9.80939Z" fill="#FBBC04"/>
<path d="M8.70624 3.77187C9.79151 3.75079 10.8346 4.16171 11.6143 4.90979L13.7742 2.74985C12.4045 1.45388 10.5923 0.747941 8.70624 0.769013C5.84037 0.769013 3.21682 2.39161 1.9314 4.95194L4.44958 6.9117C5.05015 5.10998 6.72545 3.77187 8.70624 3.77187Z" fill="#EA4335"/>
</g>
<defs>
<clipPath id="clip0_1350_3248">
<rect width="46.9789" height="18.3332" fill="white" transform="translate(0.525146 0.769043)"/>
</clipPath>
</defs>
</svg>
