<svg width="45" height="20" viewBox="0 0 45 20" fill="none" xmlns="http://www.w3.org/2000/svg">
<g clip-path="url(#clip0_1350_3245)">
<path d="M6.31157 4.16802C7.13657 4.23768 7.96156 3.75002 8.47856 3.12852V3.12669C8.98639 2.49237 9.32188 1.63437 9.23938 0.769043C8.50422 0.803876 7.60406 1.25671 7.0889 1.89287C6.61224 2.43553 6.20707 3.33019 6.31157 4.16802ZM4.26927 15.5199C5.18227 15.4851 5.54159 14.9205 6.64157 14.9205C7.74889 14.9205 8.07156 15.5199 9.03405 15.5071C10.0314 15.4869 10.6565 14.6015 11.267 13.6921C11.96 12.66 12.2497 11.6608 12.2644 11.6058C12.2442 11.5856 10.3394 10.845 10.3174 8.61199C10.2972 6.742 11.8244 5.85466 11.8904 5.79967C11.0305 4.50168 9.69038 4.36235 9.22289 4.32751L9.22655 4.32935C8.02939 4.25785 7.0064 5.01868 6.44174 5.01868C5.86426 5.01868 4.99894 4.36235 4.04928 4.38251C2.82095 4.40451 1.6788 5.11034 1.05363 6.23233C-0.238858 8.48549 0.716303 11.8148 1.96663 13.65C2.57895 14.5556 3.30678 15.5547 4.26927 15.5199ZM26.5624 8.44516H28.4398C28.5974 7.60733 29.3601 7.0555 30.4069 7.0555C31.6792 7.0555 32.3942 7.655 32.3942 8.76416V9.51765L29.7964 9.67898C27.3838 9.82565 26.0766 10.8303 26.0766 12.5738C26.0839 14.332 27.4296 15.5034 29.3619 15.5052C30.6691 15.5052 31.8791 14.8361 32.4272 13.7691H32.4676V15.4026H34.3925V8.63399C34.3925 6.67417 32.8452 5.40367 30.4674 5.40367C28.2601 5.40367 26.6266 6.68517 26.5624 8.44516ZM32.4015 11.7195C32.4015 12.99 31.3345 13.8956 29.9266 13.8956C28.8193 13.8956 28.1116 13.3511 28.1116 12.528C28.1116 11.6681 28.7918 11.175 30.0916 11.098L32.4015 10.9513V11.7195ZM16.1272 1.8012V15.4008H18.2098V10.7533H21.09C23.7226 10.7533 25.5651 8.91816 25.5651 6.26716C25.5651 3.61619 23.752 1.8012 21.1578 1.8012H16.1272ZM23.4495 6.2745C23.4495 7.9905 22.4191 8.98232 20.6023 8.98232H18.2098V3.58135H20.6096C22.4173 3.58135 23.4495 4.55668 23.4495 6.2745Z" fill="black"/>
<path d="M39.8346 13.5656L37.3871 5.53564H35.2146L38.7346 15.4374L38.5421 16.0369C38.2249 17.0544 37.7097 17.454 36.7894 17.454C36.6244 17.454 36.3091 17.4339 36.1771 17.4192V19.0527C36.3018 19.082 36.8188 19.1022 36.9764 19.1022L36.9746 19.0985C39.0022 19.0985 39.9574 18.3102 40.7916 15.9305L44.4417 5.53564H42.3242L39.8767 13.5656H39.8346Z" fill="black"/>
</g>
<defs>
<clipPath id="clip0_1350_3245">
<rect width="44.1143" height="18.3332" fill="white" transform="translate(0.410889 0.769043)"/>
</clipPath>
</defs>
</svg>
