<svg width="29" height="21" viewBox="0 0 29 21" fill="none" xmlns="http://www.w3.org/2000/svg">
<g clip-path="url(#clip0_1350_3238)">
<path d="M26.8277 20.6601V20.7142H26.8735H26.8985C26.9003 20.7111 26.9013 20.7075 26.9013 20.7039C26.9013 20.7002 26.9003 20.6966 26.8985 20.6934H26.8735L26.8277 20.6601ZM26.8735 20.6267C26.8828 20.6229 26.8927 20.6209 26.9027 20.6209C26.9127 20.6209 26.9226 20.6229 26.9319 20.6267C26.9352 20.6339 26.937 20.6417 26.937 20.6497C26.937 20.6576 26.9352 20.6654 26.9319 20.6726C26.9345 20.6785 26.9359 20.6849 26.9359 20.6914C26.9359 20.6978 26.9345 20.7042 26.9319 20.7101C26.9171 20.7155 26.9008 20.7155 26.886 20.7101L26.9485 20.7809H26.8985L26.8402 20.7101V20.7809H26.7985V20.5892L26.8735 20.6267ZM26.8735 20.8851C26.894 20.891 26.9156 20.891 26.936 20.8851C26.9563 20.8781 26.9748 20.8667 26.9902 20.8517C27.0036 20.8368 27.0149 20.8199 27.0235 20.8017C27.04 20.7603 27.04 20.7141 27.0235 20.6726C27.0149 20.6544 27.0036 20.6376 26.9902 20.6226C26.975 20.6064 26.9565 20.5937 26.936 20.5851H26.8735H26.811C26.7905 20.5937 26.7721 20.6064 26.7568 20.6226C26.7345 20.646 26.7195 20.6754 26.7135 20.7072C26.7076 20.7391 26.7111 20.7719 26.7235 20.8017C26.7311 20.8205 26.7425 20.8375 26.7568 20.8517C26.7721 20.8679 26.7905 20.8807 26.811 20.8892C26.8317 20.8932 26.8529 20.8932 26.8735 20.8892V20.8851ZM26.8735 20.5142C26.9298 20.5144 26.9838 20.5369 27.0235 20.5767C27.0438 20.5951 27.0595 20.6179 27.0693 20.6434C27.0818 20.6687 27.0883 20.6965 27.0883 20.7247C27.0883 20.7529 27.0818 20.7807 27.0693 20.8059C27.0605 20.8319 27.0446 20.855 27.0235 20.8726C27.0048 20.8924 26.9821 20.9081 26.9568 20.9184C26.9305 20.9294 26.9021 20.9351 26.8735 20.9351C26.8449 20.9351 26.8166 20.9294 26.7902 20.9184C26.7642 20.9071 26.7403 20.8916 26.7193 20.8726C26.7016 20.853 26.6876 20.8304 26.6777 20.8059C26.6652 20.7807 26.6587 20.7529 26.6587 20.7247C26.6587 20.6965 26.6652 20.6687 26.6777 20.6434C26.6999 20.5932 26.74 20.5531 26.7902 20.5309C26.8176 20.5247 26.8461 20.5247 26.8735 20.5309V20.5142ZM7.19452 19.7809C7.19864 19.6551 7.23996 19.5334 7.31321 19.431C7.38645 19.3286 7.48839 19.2502 7.60614 19.2057C7.72389 19.1612 7.8522 19.1525 7.97483 19.1807C8.09751 19.2091 8.20907 19.273 8.29545 19.3646C8.38182 19.4562 8.43914 19.5713 8.46014 19.6954C8.4812 19.8195 8.46501 19.9471 8.4137 20.062C8.36232 20.1769 8.27814 20.2741 8.17164 20.3412C8.06514 20.4084 7.94114 20.4425 7.81533 20.4392C7.72783 20.4406 7.64102 20.4238 7.56033 20.3899C7.47964 20.356 7.40689 20.3058 7.34658 20.2424C7.28627 20.1789 7.23983 20.1037 7.21002 20.0214C7.18027 19.9391 7.16789 19.8516 7.17364 19.7642L7.19452 19.7809ZM8.88195 19.7642V18.7101H8.42364V18.9684C8.3457 18.8668 8.24439 18.7853 8.12839 18.7309C8.01239 18.6766 7.88501 18.6508 7.75702 18.6559C7.46302 18.6559 7.18114 18.7727 6.97328 18.9806C6.76543 19.1884 6.64866 19.4703 6.64866 19.7642C6.64866 20.0582 6.76543 20.3401 6.97328 20.548C7.18114 20.7558 7.46302 20.8726 7.75702 20.8726C7.88458 20.8775 8.01145 20.8521 8.12739 20.7985C8.24326 20.7449 8.34476 20.6646 8.42364 20.5642V20.8184H8.88195V19.7642ZM24.3818 19.7642C24.3892 19.6401 24.4327 19.5207 24.507 19.4209C24.5814 19.3211 24.6833 19.2452 24.8003 19.2027C24.9172 19.1601 25.044 19.1527 25.1652 19.1814C25.2862 19.2101 25.3963 19.2736 25.4817 19.3641C25.5672 19.4545 25.6243 19.568 25.646 19.6906C25.6677 19.8131 25.6531 19.9393 25.6039 20.0536C25.5548 20.1679 25.4732 20.2654 25.3693 20.3339C25.2655 20.4024 25.1438 20.4391 25.0193 20.4392C24.9322 20.44 24.8458 20.4228 24.7657 20.3886C24.6855 20.3545 24.6132 20.3042 24.5534 20.2408C24.4935 20.1774 24.4474 20.1024 24.4179 20.0204C24.3884 19.9384 24.3762 19.8512 24.3818 19.7642ZM26.0902 19.7642V17.8643H25.636V18.9684C25.5595 18.8663 25.459 18.7844 25.3436 18.73C25.2281 18.6755 25.1011 18.6501 24.9735 18.6559C24.6796 18.6559 24.3977 18.7727 24.1899 18.9806C23.982 19.1884 23.8652 19.4703 23.8652 19.7642C23.8652 20.0582 23.982 20.3401 24.1899 20.548C24.3977 20.7558 24.6796 20.8726 24.9735 20.8726C25.1006 20.8782 25.2272 20.8531 25.3425 20.7994C25.4578 20.7457 25.5585 20.6651 25.636 20.5642V20.8184H26.0985L26.0902 19.7642ZM14.5819 19.0684C14.6507 19.0668 14.7191 19.0788 14.7832 19.1036C14.8473 19.1286 14.9058 19.1659 14.9554 19.2136C15.005 19.2612 15.0446 19.3182 15.072 19.3812C15.0995 19.4443 15.1142 19.5122 15.1153 19.5809H14.0236C14.0312 19.4394 14.0939 19.3066 14.1982 19.2107C14.3026 19.115 14.4403 19.0639 14.5819 19.0684ZM14.5819 18.6518C14.288 18.6556 14.0076 18.7761 13.8025 18.9867C13.5974 19.1973 13.4844 19.4807 13.4882 19.7747C13.492 20.0686 13.6125 20.349 13.8231 20.5541C14.0337 20.7592 14.3172 20.8723 14.6111 20.8684C14.9253 20.8799 15.2326 20.7745 15.4736 20.5726L15.2486 20.2309C15.075 20.3711 14.8592 20.4489 14.6361 20.4517C14.4846 20.4646 14.334 20.4179 14.2165 20.3213C14.099 20.2248 14.0238 20.0862 14.0069 19.9351H15.5736C15.5736 19.8809 15.5736 19.8226 15.5736 19.7601C15.5869 19.62 15.5709 19.4787 15.5265 19.3451C15.4822 19.2116 15.4105 19.0888 15.316 18.9844C15.2215 18.8801 15.1063 18.7967 14.9778 18.7394C14.8492 18.6821 14.7102 18.6523 14.5694 18.6518H14.5819ZM20.1111 19.7601C20.1184 19.6359 20.1619 19.5165 20.2363 19.4167C20.3106 19.3169 20.4126 19.2411 20.5295 19.1985C20.6464 19.156 20.7732 19.1486 20.8944 19.1772C21.0154 19.2059 21.1255 19.2694 21.2109 19.3599C21.2964 19.4504 21.3535 19.5639 21.3752 19.6864C21.3969 19.8089 21.3822 19.9351 21.3331 20.0494C21.2839 20.1637 21.2024 20.2612 21.0986 20.3297C20.9947 20.3982 20.873 20.4349 20.7486 20.4351C20.6614 20.4359 20.5751 20.4186 20.4949 20.3845C20.4147 20.3503 20.3424 20.3 20.2826 20.2366C20.2228 20.1733 20.1766 20.0982 20.1471 20.0162C20.1176 19.9342 20.1053 19.8471 20.1111 19.7601ZM21.8152 19.7601V18.7101H21.3569V18.9684C21.2794 18.8663 21.1782 18.7844 21.0621 18.7299C20.946 18.6755 20.8184 18.6501 20.6902 18.6559C20.3963 18.6559 20.1144 18.7727 19.9065 18.9806C19.6987 19.1884 19.5819 19.4703 19.5819 19.7642C19.5819 20.0582 19.6987 20.3401 19.9065 20.548C20.1144 20.7558 20.3963 20.8726 20.6902 20.8726C20.8179 20.8782 20.9451 20.8531 21.0611 20.7994C21.1771 20.7458 21.2785 20.6652 21.3569 20.5642V20.8184H21.8152V19.7642V19.7601ZM17.5195 19.7601C17.5128 19.9094 17.5375 20.0584 17.5921 20.1976C17.6467 20.3367 17.73 20.4627 17.8364 20.5677C17.9429 20.6726 18.0702 20.7539 18.2101 20.8064C18.35 20.8589 18.4994 20.8815 18.6486 20.8726C18.9244 20.8864 19.1952 20.7957 19.4069 20.6184L19.1861 20.2476C19.0272 20.3702 18.8326 20.4375 18.6319 20.4392C18.4529 20.4392 18.2812 20.3681 18.1546 20.2416C18.028 20.115 17.957 19.9433 17.957 19.7642C17.957 19.5852 18.028 19.4136 18.1546 19.2869C18.2812 19.1604 18.4529 19.0893 18.6319 19.0893C18.8318 19.0916 19.0258 19.1572 19.1861 19.2767L19.4069 18.9059C19.1938 18.7316 18.9236 18.6426 18.6486 18.6559C18.5001 18.6477 18.3515 18.6706 18.2124 18.7231C18.0733 18.7757 17.9467 18.8568 17.8408 18.9611C17.7348 19.0654 17.6519 19.1908 17.5973 19.3291C17.5426 19.4674 17.5176 19.6157 17.5236 19.7642L17.5195 19.7601ZM23.436 18.6559C23.3245 18.6528 23.2142 18.6798 23.1166 18.734C23.0191 18.7883 22.938 18.8678 22.8819 18.9643V18.7101H22.4444V20.8184H22.9027V19.6351C22.9027 19.2892 23.0527 19.0934 23.3527 19.0934C23.4512 19.0929 23.5487 19.1112 23.6402 19.1476L23.7777 18.7309C23.6738 18.6921 23.5637 18.6724 23.4527 18.6726L23.436 18.6559ZM11.1486 18.8768C10.8968 18.7271 10.6082 18.6506 10.3153 18.6559C9.78194 18.6559 9.43613 18.9143 9.43613 19.3309C9.43613 19.6767 9.69032 19.8892 10.1653 19.9559L10.3819 19.9851C10.632 20.0184 10.7528 20.0851 10.7528 20.2059C10.7528 20.3267 10.5819 20.4601 10.2694 20.4601C10.0178 20.4681 9.77094 20.3902 9.56944 20.2392L9.35282 20.5976C9.61925 20.7855 9.93944 20.8819 10.2653 20.8726C10.8736 20.8726 11.2278 20.5851 11.2278 20.1851C11.2278 19.7851 10.9486 19.6184 10.4903 19.5517L10.2736 19.5226C10.0778 19.4976 9.91944 19.4559 9.91944 19.3142C9.91944 19.1726 10.0694 19.0684 10.3361 19.0684C10.5672 19.0716 10.7937 19.1332 10.9944 19.2476L11.1903 18.8768H11.1486ZM17.0694 18.6559C16.9573 18.6529 16.8465 18.6799 16.7483 18.7341C16.6501 18.7883 16.5682 18.8678 16.5111 18.9643V18.7101H16.0653V20.8184H16.5236V19.6351C16.5236 19.2892 16.6736 19.0934 16.9736 19.0934C17.0721 19.0924 17.1698 19.1109 17.2611 19.1476L17.4028 18.7309C17.2988 18.6921 17.1887 18.6724 17.0778 18.6726L17.0694 18.6559ZM13.1611 18.7268H12.3986V18.0684H11.9486V18.7101H11.5319V19.1267H11.9486V20.1017C11.9486 20.5934 12.1403 20.8851 12.6819 20.8851C12.885 20.8854 13.0841 20.8292 13.2569 20.7226L13.1236 20.3059C12.9974 20.3812 12.8539 20.4228 12.7069 20.4267C12.4778 20.4267 12.4028 20.2851 12.4028 20.0726V19.1309H13.1528L13.1611 18.7268ZM6.30282 20.8184V19.4976C6.30951 19.3864 6.29253 19.2751 6.25302 19.1709C6.21351 19.0668 6.15235 18.9723 6.07359 18.8935C5.99484 18.8148 5.90027 18.7536 5.79614 18.7141C5.692 18.6746 5.58068 18.6576 5.4695 18.6643C5.32387 18.6564 5.17873 18.6869 5.04858 18.7527C4.91844 18.8185 4.80783 18.9173 4.72783 19.0393C4.65617 18.9201 4.55375 18.8224 4.43132 18.7564C4.30889 18.6904 4.17097 18.6586 4.03201 18.6643C3.9109 18.6581 3.79029 18.6837 3.68212 18.7385C3.57395 18.7933 3.48199 18.8754 3.41534 18.9768V18.7184H2.96118V20.8267H3.42368V19.6476C3.41368 19.5755 3.4198 19.5021 3.44162 19.4327C3.46343 19.3632 3.50038 19.2995 3.54982 19.2461C3.59924 19.1927 3.65991 19.1509 3.72745 19.1238C3.79498 19.0967 3.86769 19.0849 3.94034 19.0893C4.24451 19.0893 4.39867 19.2892 4.39867 19.6434V20.8184H4.86117V19.6476C4.85193 19.5756 4.8586 19.5026 4.88069 19.4334C4.90279 19.3644 4.93978 19.3009 4.98904 19.2477C5.03831 19.1944 5.09866 19.1527 5.16584 19.1253C5.23302 19.0979 5.30538 19.0856 5.37783 19.0893C5.69033 19.0893 5.84033 19.2851 5.84033 19.6434V20.8184H6.30282Z" fill="#231F20"/>
<path d="M27.0861 13.802V13.4937H27.0069L26.9152 13.7062L26.8236 13.4937H26.7402V13.802H26.7986V13.5728L26.8861 13.7728H26.9444L27.0319 13.5687V13.802H27.0861ZM26.5777 13.802V13.5478H26.6819V13.4937H26.4194V13.5478H26.5194V13.802H26.5777Z" fill="#F79410"/>
<path d="M17.9568 15.1268H11.0068V2.62695H17.9568V15.1268Z" fill="#FF5F00"/>
<path d="M11.4485 8.88109C11.4464 7.67791 11.7184 6.49013 12.244 5.40788C12.7695 4.32564 13.5349 3.37742 14.4819 2.63528C13.3095 1.7149 11.9019 1.14284 10.4197 0.984447C8.93769 0.826059 7.44095 1.08773 6.10053 1.73957C4.76011 2.39141 3.63005 3.40713 2.83946 4.6707C2.04888 5.93426 1.62964 7.39473 1.62964 8.88522C1.62964 10.3758 2.04888 11.8362 2.83946 13.0998C3.63005 14.3634 4.76011 15.379 6.10053 16.0309C7.44095 16.6827 8.93769 16.9444 10.4197 16.786C11.9019 16.6277 13.3095 16.0556 14.4819 15.1352C13.5343 14.3926 12.7687 13.4438 12.243 12.3607C11.7174 11.2777 11.4457 10.0891 11.4485 8.88522" fill="#EB001B"/>
<path d="M27.336 8.88108C27.3371 10.3723 26.9184 11.8336 26.1277 13.0979C25.3371 14.3622 24.2064 15.3783 22.8652 16.03C21.524 16.6816 20.0264 16.9426 18.5438 16.7829C17.0612 16.6231 15.6536 16.0493 14.4819 15.1269C15.4289 14.3835 16.1946 13.4345 16.7211 12.3518C17.2476 11.2691 17.5212 10.0809 17.5212 8.87695C17.5212 7.67296 17.2476 6.48477 16.7211 5.40204C16.1946 4.31932 15.4289 3.37041 14.4819 2.62697C15.6539 1.70437 17.0619 1.13042 18.5448 0.970869C20.0278 0.811314 21.5257 1.0726 22.8671 1.7248C24.2084 2.37699 25.339 3.39375 26.1294 4.65864C26.9197 5.92353 27.3379 7.3854 27.336 8.87695" fill="#F79E1B"/>
</g>
<defs>
<clipPath id="clip0_1350_3238">
<rect width="27.4998" height="19.9999" fill="white" transform="translate(0.910889 0.935547)"/>
</clipPath>
</defs>
</svg>
