<svg width="53" height="18" viewBox="0 0 53 18" fill="none" xmlns="http://www.w3.org/2000/svg">
<g clip-path="url(#clip0_1350_3229)">
<path d="M15.8898 0.569007L12.0094 12.5009L11.2752 9.1448C10.1612 6.24029 8.19198 3.74224 5.62793 1.98082L9.34708 17.3091H13.8245L20.093 0.593209H15.8898V0.569007ZM49.3136 0.569007H44.8361L37.9707 17.2768H42.1496L43.0451 14.8566H48.4181L49.0151 17.2768H52.5971L49.3136 0.569007ZM43.9406 11.9039L46.3609 5.64349L47.5549 11.9039H43.9406ZM32.0007 5.33692C32.0007 4.44949 32.5977 3.54592 34.6872 3.54592C35.7762 3.64903 36.8125 4.06354 37.6722 4.73992L38.5676 1.166C37.3342 0.649861 36.022 0.347053 34.6872 0.270508C30.2097 0.270508 28.1202 2.69077 28.1202 5.34499C28.1202 10.7099 34.0902 9.82246 34.0902 12.5009C34.0902 13.0979 33.7917 13.9934 31.4037 13.9934C29.9632 13.9917 28.5394 13.6866 27.2247 13.0979L26.6277 16.6799C28.0226 17.3458 29.5615 17.6535 31.1052 17.5754C33.7917 17.8739 37.9707 15.4859 37.9707 11.9281C37.9707 7.72489 32.0007 7.4345 32.0007 5.33692Z" fill="#1565C0"/>
<path d="M19.4717 17.5756H23.6507L26.3372 0.867676H21.8597L19.4717 17.5756Z" fill="#1565C0"/>
<path d="M11.4526 9.81448L9.91983 2.36008C9.70765 1.90103 9.36492 1.51467 8.9345 1.24923C8.50409 0.983791 8.00498 0.851054 7.49952 0.867587H0.964844C0.964844 0.867587 9.62129 3.55408 11.4526 9.81448Z" fill="#FF9800"/>
</g>
<defs>
<clipPath id="clip0_1350_3229">
<rect width="51.99" height="17.33" fill="white" transform="translate(0.964844 0.270508)"/>
</clipPath>
</defs>
</svg>
