<svg width="18" height="21" viewBox="0 0 18 21" fill="none" xmlns="http://www.w3.org/2000/svg">
<path d="M5.77042 20.2552L6.12014 18.0552H5.34014H1.66016L4.22015 1.79523C4.22701 1.74489 4.25215 1.69866 4.29043 1.66523C4.33043 1.63421 4.37957 1.61666 4.43043 1.61523H10.6401C12.7104 1.61523 14.1304 2.04523 14.8801 2.89523C15.2121 3.2518 15.4435 3.69014 15.5504 4.16499C15.6669 4.7427 15.6669 5.33756 15.5504 5.91527V6.41527L15.9001 6.61527C16.1669 6.74784 16.4075 6.92726 16.6104 7.14498C16.9161 7.51412 17.1132 7.96098 17.1801 8.43526C17.2555 9.05526 17.2281 9.68382 17.1001 10.2952C16.9686 11.0381 16.7081 11.7518 16.3304 12.405C16.0252 12.9289 15.6127 13.3821 15.1201 13.7352C14.6247 14.0735 14.0727 14.3204 13.4904 14.4649C12.8367 14.6301 12.1647 14.7107 11.4904 14.7049H11.0001C10.6567 14.7055 10.3241 14.8255 10.0601 15.0449C9.79498 15.2689 9.62069 15.5821 9.5704 15.9249V16.1249L8.96012 20.0049V20.1552C8.96755 20.1815 8.96755 20.2089 8.96012 20.2352H8.90013L5.77042 20.2552Z" fill="#253D80"/>
<path d="M16.2307 6.01562L16.1707 6.38591C15.3507 10.5859 12.541 12.0459 8.96103 12.0459H7.14104C6.70276 12.0453 6.32962 12.363 6.26105 12.7956L5.33077 18.7156L5.06106 20.3955C5.04049 20.5304 5.07934 20.667 5.16791 20.7704C5.25591 20.8738 5.38506 20.9344 5.52106 20.9355H8.76104C9.14504 20.9355 9.47189 20.655 9.53075 20.2755V20.1155L10.141 16.2459V16.0356C10.1953 15.6579 10.5187 15.3767 10.901 15.3756H11.4307C14.561 15.3756 17.021 14.1059 17.7307 10.3756C18.1147 9.10075 17.8781 7.71961 17.0907 6.64591C16.841 6.38934 16.5501 6.17677 16.2307 6.01562Z" fill="#189BD7"/>
<path d="M15.3705 5.67563L14.9905 5.57563L14.5705 5.49563C14.0408 5.4162 13.506 5.37963 12.9705 5.38534H8.09056C7.97627 5.38249 7.8637 5.40649 7.76027 5.45563C7.52884 5.5642 7.36713 5.78191 7.33056 6.03563L6.33057 12.6053V12.7956C6.39914 12.363 6.77285 12.0447 7.21057 12.0453H9.03055C12.6105 12.0453 15.4202 10.5853 16.2402 6.38534L16.3002 6.01563C16.0854 5.9042 15.8608 5.81048 15.6305 5.73563L15.3705 5.67563Z" fill="#242E65"/>
<path d="M7.33058 6.03552C7.36715 5.78238 7.52887 5.56409 7.76086 5.45552C7.86372 5.40638 7.97686 5.38238 8.09057 5.38524H12.9706C13.506 5.37952 14.0408 5.41609 14.5705 5.49552L14.9905 5.57552L15.3705 5.67552L15.5608 5.73552C15.7911 5.81038 16.0151 5.90409 16.2305 6.01552C16.5557 4.76638 16.258 3.43673 15.4305 2.44554C14.4305 1.38554 12.7905 0.935547 10.6506 0.935547H4.4306C3.99288 0.935033 3.61975 1.25309 3.55061 1.68554L0.960899 18.0955C0.93747 18.2503 0.982615 18.4075 1.08433 18.5263C1.18604 18.6452 1.33404 18.7143 1.49061 18.7155H5.33059L6.33058 12.6058L7.33058 6.03552Z" fill="#253D80"/>
</svg>
