<svg width="123" height="34" viewBox="0 0 123 34" fill="none" xmlns="http://www.w3.org/2000/svg">
<path d="M48.0898 20.3117C49.4613 20.3117 50.5838 20.8462 51.3319 21.7368C51.4387 21.897 51.4741 21.986 51.3673 22.0928L51.0288 22.4133C50.8685 22.5914 50.7258 22.5028 50.6368 22.3959C50.0668 21.7904 49.3369 21.3095 48.1258 21.3094C46.1131 21.3094 44.5991 22.7699 44.5991 24.8895C44.5992 27.0089 46.1128 28.4515 48.1432 28.4516C49.3544 28.4516 50.085 27.9883 50.6194 27.4005C50.744 27.2759 50.8866 27.187 51.0468 27.3471L51.3853 27.6856C51.4922 27.7925 51.4562 27.8817 51.3493 28.0242C50.6013 28.9325 49.4793 29.4666 48.0724 29.4667C45.5076 29.4667 43.5481 27.5077 43.548 24.8895C43.548 22.2713 45.5072 20.3118 48.0898 20.3117Z" fill="#1C274C"/>
<path fill-rule="evenodd" clip-rule="evenodd" d="M56.8272 20.3117C59.3565 20.3117 61.2621 22.289 61.2621 24.8895C61.262 27.4899 59.3564 29.4667 56.8272 29.4667C54.298 29.4667 52.3744 27.4899 52.3743 24.8895C52.3743 22.289 54.298 20.3117 56.8272 20.3117ZM56.8272 21.3094C54.868 21.3094 53.4254 22.8055 53.4254 24.8895C53.4255 26.9734 54.868 28.4516 56.8272 28.4516C58.7686 28.4516 60.229 26.9734 60.229 24.8895C60.229 22.8055 58.7687 21.3094 56.8272 21.3094Z" fill="#1C274C"/>
<path fill-rule="evenodd" clip-rule="evenodd" d="M94.754 20.3117C97.3366 20.3117 98.8148 22.3065 98.8149 24.4261C98.8149 25.0495 98.7081 25.2635 98.2272 25.2635H91.4236C91.584 27.1158 92.8304 28.5403 95.0745 28.5404C96.2144 28.5404 96.9982 28.1667 97.6749 27.6502C97.7462 27.579 97.8712 27.579 97.9247 27.6502L98.1738 27.9708C98.2984 28.131 98.2276 28.2201 98.103 28.3447C97.3193 29.0928 96.1969 29.4667 94.9857 29.4667C92.1358 29.4667 90.3905 27.3827 90.3905 24.8535C90.3906 22.2888 92.1714 20.3118 94.754 20.3117ZM94.7366 21.2734C92.8842 21.2734 91.6013 22.5026 91.441 24.3907H97.8713C97.8178 22.574 96.6244 21.2735 94.7366 21.2734Z" fill="#1C274C"/>
<path d="M109.697 20.3117C111.069 20.3117 112.191 20.8462 112.939 21.7368C113.046 21.897 113.082 21.986 112.975 22.0928L112.636 22.4133C112.476 22.5914 112.333 22.5027 112.244 22.3959C111.674 21.7903 110.944 21.3094 109.733 21.3094C107.72 21.3095 106.206 22.77 106.206 24.8895C106.206 27.009 107.72 28.4516 109.751 28.4516C110.962 28.4516 111.692 27.9883 112.226 27.4005C112.351 27.2759 112.494 27.1872 112.654 27.3471L112.992 27.6856C113.099 27.7925 113.064 27.8817 112.957 28.0242C112.209 28.9326 111.087 29.4667 109.679 29.4667C107.115 29.4666 105.156 27.5077 105.156 24.8895C105.156 22.2712 107.115 20.3117 109.697 20.3117Z" fill="#1C274C"/>
<path fill-rule="evenodd" clip-rule="evenodd" d="M118.345 20.3117C120.928 20.3117 122.406 22.3065 122.406 24.4261C122.406 25.0495 122.3 25.2635 121.819 25.2635H115.015C115.175 27.1158 116.422 28.5403 118.666 28.5404C119.806 28.5404 120.59 28.1667 121.266 27.6502C121.338 27.579 121.463 27.579 121.516 27.6502L121.765 27.9708C121.89 28.131 121.819 28.2201 121.694 28.3447C120.911 29.0928 119.788 29.4667 118.577 29.4667C115.727 29.4667 113.982 27.3827 113.982 24.8535C113.982 22.2888 115.763 20.3118 118.345 20.3117ZM118.328 21.2734C116.476 21.2734 115.193 22.5026 115.032 24.3907H121.463C121.409 22.574 120.216 21.2735 118.328 21.2734Z" fill="#1C274C"/>
<path d="M71.8949 20.3117C73.676 20.3117 74.745 21.4516 74.7451 23.767V29.0038C74.7451 29.164 74.6914 29.2528 74.5314 29.253H73.9077C73.7474 29.253 73.676 29.1641 73.676 29.0038V23.8384C73.676 22.2355 73.035 21.3095 71.6992 21.3094C70.3456 21.3094 69.4194 22.271 69.4194 23.8384V29.0038C69.4194 29.164 69.3658 29.2529 69.2057 29.253H68.5639C68.4216 29.2529 68.3503 29.164 68.3502 29.0038V23.8384C68.3502 22.2354 67.6021 21.3094 66.2841 21.3094C64.9127 21.3095 64.0937 22.2711 64.0936 23.8384V29.0038C64.0936 29.1641 64.0222 29.253 63.8619 29.253H63.2382C63.0781 29.2529 63.0245 29.164 63.0245 29.0038V20.7745C63.0246 20.6145 63.0782 20.5255 63.2382 20.5254H63.7905C63.9864 20.5254 64.0402 20.5967 64.0402 20.7926L64.0756 21.8076C64.4853 20.9885 65.2512 20.3118 66.5512 20.3117C67.7802 20.3117 68.7067 20.8818 69.1342 22.0574C69.5795 21.0955 70.381 20.3117 71.8949 20.3117Z" fill="#1C274C"/>
<path d="M85.8003 20.3117C87.5814 20.3117 88.6504 21.4516 88.6505 23.767V29.0038C88.6505 29.1641 88.5965 29.253 88.4362 29.253H87.8131C87.6528 29.253 87.5814 29.1641 87.5814 29.0038V23.8384C87.5814 22.2355 86.9403 21.3095 85.6046 21.3094C84.251 21.3094 83.3248 22.271 83.3248 23.8384V29.0038C83.3248 29.164 83.2711 29.2529 83.1111 29.253H82.4693C82.327 29.2529 82.2556 29.164 82.2556 29.0038V23.8384C82.2556 22.2354 81.5075 21.3094 80.1895 21.3094C78.8181 21.3095 77.9991 22.2711 77.999 23.8384V29.0038C77.999 29.1641 77.9276 29.253 77.7673 29.253H77.1436C76.9836 29.2529 76.9299 29.164 76.9299 29.0038V20.7745C76.93 20.6145 76.9836 20.5255 77.1436 20.5254H77.6959C77.8918 20.5254 77.9456 20.5967 77.9456 20.7926L77.981 21.8076C78.3907 20.9885 79.1566 20.3118 80.4566 20.3117C81.6856 20.3117 82.6121 20.8818 83.0396 22.0574C83.4849 21.0955 84.2863 20.3117 85.8003 20.3117Z" fill="#1C274C"/>
<path d="M103.631 20.3117C103.987 20.3118 104.272 20.3652 104.432 20.472C104.539 20.5432 104.574 20.6145 104.574 20.7745V21.238C104.574 21.4338 104.45 21.4516 104.272 21.3983C104.022 21.327 103.808 21.3094 103.648 21.3094C102.009 21.3095 101.618 22.8054 101.618 23.7316V29.0038C101.618 29.1641 101.546 29.2529 101.386 29.253H100.762C100.602 29.2529 100.549 29.164 100.549 29.0038V20.7745C100.549 20.6145 100.602 20.5255 100.762 20.5254H101.315C101.511 20.5254 101.564 20.5967 101.564 20.7926L101.6 21.7542C101.938 20.9528 102.544 20.3117 103.631 20.3117Z" fill="#1C274C"/>
<path d="M49.8961 17.3755C46.2803 17.3755 43.5195 14.5969 43.5195 10.9633C43.5195 7.32975 46.2803 4.53333 49.8961 4.53333C51.6594 4.53333 53.0844 5.19236 54.1887 6.24324C54.3134 6.36792 54.3312 6.4926 54.2065 6.6351L53.2981 7.61474C53.1912 7.73942 53.0666 7.73942 52.9241 7.63255C52.1047 6.92008 51.1251 6.4926 49.9139 6.4926C47.4203 6.4926 45.5322 8.38064 45.5322 10.9633C45.5322 13.546 47.4203 15.4162 49.9139 15.4162C51.1251 15.4162 52.1047 14.9887 52.9241 14.2763C53.0666 14.1516 53.1912 14.1694 53.2981 14.2763L54.2065 15.2737C54.349 15.3984 54.3134 15.5231 54.1887 15.6478C53.0844 16.7165 51.6594 17.3755 49.8961 17.3755Z" fill="#1C274C"/>
<path d="M59.3163 17.3577C56.7158 17.3577 54.7921 15.3628 54.7921 12.7801C54.7921 10.1974 56.7158 8.20252 59.3163 8.20252C61.899 8.20252 63.8226 10.1974 63.8226 12.7801C63.8226 15.3628 61.899 17.3577 59.3163 17.3577ZM56.6446 12.7801C56.6446 14.4544 57.8023 15.5765 59.3163 15.5765C60.8125 15.5765 61.9702 14.4544 61.9702 12.7801C61.9702 11.1058 60.8125 9.98368 59.3163 9.98368C57.8023 9.98368 56.6446 11.1058 56.6446 12.7801Z" fill="#1C274C"/>
<path d="M64.844 17.144C64.6837 17.144 64.5946 17.0371 64.5946 16.8768V15.7368C64.5946 15.6122 64.6302 15.5053 64.7193 15.4162L69.2078 10.0015H64.8974C64.7371 10.0015 64.648 9.91244 64.648 9.75213V8.68343C64.648 8.52313 64.7371 8.41626 64.8974 8.41626H71.0958C71.2562 8.41626 71.363 8.52313 71.363 8.68343V9.82338C71.363 9.94806 71.3096 10.0549 71.2383 10.144L66.732 15.5587H71.1137C71.274 15.5587 71.3808 15.6478 71.3808 15.8081V16.8768C71.3808 17.0371 71.274 17.144 71.1137 17.144H64.844Z" fill="#1C274C"/>
<path d="M74.5672 20.5282C74.3713 20.5282 74.2823 20.4213 74.3713 20.2432L75.6181 17.1618L72.2517 8.71906C72.1805 8.52313 72.2695 8.41626 72.4655 8.41626H73.9082C74.0507 8.41626 74.1576 8.48751 74.211 8.63L76.5621 14.9353L78.9311 8.63C78.9845 8.48751 79.0914 8.41626 79.2339 8.41626H80.6766C80.8726 8.41626 80.9438 8.52313 80.8726 8.71906L76.2772 20.3144C76.2237 20.4569 76.099 20.5282 75.9566 20.5282H74.5672Z" fill="#1C274C"/>
<path fill-rule="evenodd" clip-rule="evenodd" d="M1.0659 6.14528C0 8.36672 0 11.2445 0 17C0 22.7555 0 25.6333 1.0659 27.8547C2.13191 30.0764 3.92363 31.8681 6.14528 32.9341C8.36672 34 11.2445 34 17 34C22.7555 34 25.6333 34 27.8547 32.9341C30.0764 31.8681 31.8681 30.0764 32.9341 27.8547C34 25.6333 34 22.7555 34 17C34 11.2445 34 8.36672 32.9341 6.14528C31.8681 3.92363 30.0764 2.13191 27.8547 1.0659C25.6333 0 22.7555 0 17 0C11.2445 0 8.36672 0 6.14528 1.0659C3.92363 2.13191 2.13191 3.92363 1.0659 6.14528ZM23.2949 15.0348H13.051V11.3601C13.051 10.9542 12.722 10.6252 12.3161 10.6252H6.63C6.50182 10.6252 6.39791 10.7291 6.39791 10.8573V11.863C6.39791 11.9911 6.50182 12.095 6.63 12.095H11.5812V20.1793C11.5812 20.5853 11.9102 20.9143 12.3161 20.9143H22.7663C23.1036 20.9143 23.3976 20.6848 23.4793 20.3576L25.3166 13.0082C25.3312 12.9499 25.3386 12.8901 25.3386 12.83C25.3386 12.4241 25.0096 12.095 24.6037 12.095H15.0118C14.8837 12.095 14.7798 12.1989 14.7798 12.3271V13.3328C14.7798 13.461 14.8837 13.5649 15.0118 13.5649H23.6624L23.2949 15.0348ZM11.5812 23.854C11.5812 24.6658 12.2392 25.3239 13.051 25.3239C13.8628 25.3239 14.5209 24.6658 14.5209 23.854C14.5209 23.0422 13.8628 22.3842 13.051 22.3842C12.2392 22.3842 11.5812 23.0422 11.5812 23.854ZM20.4004 23.854C20.4004 24.6658 21.0585 25.3239 21.8703 25.3239C22.6821 25.3239 23.3402 24.6658 23.3402 23.854C23.3402 23.0422 22.6821 22.3842 21.8703 22.3842C21.0585 22.3842 20.4004 23.0422 20.4004 23.854Z" fill="#3C50E0"/>
</svg>
