<svg width="34" height="34" viewBox="0 0 34 34" fill="none" xmlns="http://www.w3.org/2000/svg">
<path fill-rule="evenodd" clip-rule="evenodd" d="M1.0659 6.14528C0 8.36672 0 11.2445 0 17C0 22.7555 0 25.6333 1.0659 27.8547C2.13191 30.0764 3.92363 31.8681 6.14528 32.9341C8.36672 34 11.2445 34 17 34C22.7555 34 25.6333 34 27.8547 32.9341C30.0764 31.8681 31.8681 30.0764 32.9341 27.8547C34 25.6333 34 22.7555 34 17C34 11.2445 34 8.36672 32.9341 6.14528C31.8681 3.92363 30.0764 2.13191 27.8547 1.0659C25.6333 0 22.7555 0 17 0C11.2445 0 8.36672 0 6.14528 1.0659C3.92363 2.13191 2.13191 3.92363 1.0659 6.14528ZM23.2949 15.0348H13.051V11.3601C13.051 10.9542 12.722 10.6252 12.3161 10.6252H6.63C6.50182 10.6252 6.39791 10.7291 6.39791 10.8573V11.863C6.39791 11.9911 6.50182 12.095 6.63 12.095H11.5812V20.1793C11.5812 20.5853 11.9102 20.9143 12.3161 20.9143H22.7663C23.1036 20.9143 23.3976 20.6848 23.4793 20.3576L25.3166 13.0082C25.3312 12.9499 25.3386 12.8901 25.3386 12.83C25.3386 12.4241 25.0096 12.095 24.6037 12.095H15.0118C14.8837 12.095 14.7798 12.1989 14.7798 12.3271V13.3328C14.7798 13.461 14.8837 13.5649 15.0118 13.5649H23.6624L23.2949 15.0348ZM11.5812 23.854C11.5812 24.6658 12.2392 25.3239 13.051 25.3239C13.8628 25.3239 14.5209 24.6658 14.5209 23.854C14.5209 23.0422 13.8628 22.3842 13.051 22.3842C12.2392 22.3842 11.5812 23.0422 11.5812 23.854ZM20.4004 23.854C20.4004 24.6658 21.0585 25.3239 21.8703 25.3239C22.6821 25.3239 23.3402 24.6658 23.3402 23.854C23.3402 23.0422 22.6821 22.3842 21.8703 22.3842C21.0585 22.3842 20.4004 23.0422 20.4004 23.854Z" fill="#3C50E0"/>
</svg>
