<svg width="44" height="19" viewBox="0 0 44 19" fill="none" xmlns="http://www.w3.org/2000/svg">
<path d="M43.2563 9.80077C43.2563 6.72485 41.7661 4.29699 38.9187 4.29699C36.0714 4.29699 34.3285 6.72404 34.3285 9.77671C34.3285 13.3932 36.3714 15.2203 39.3013 15.2203C40.7314 15.2203 41.8126 14.8995 42.6299 14.4391V12.0329C41.8126 12.4412 40.8758 12.6938 39.6863 12.6938C38.5209 12.6938 37.487 12.2856 37.3555 10.8675H43.2315C43.2323 10.7135 43.2563 10.0887 43.2563 9.80077ZM37.321 8.65943C37.321 7.30153 38.1504 6.73447 38.9075 6.73447C39.6406 6.73447 40.4218 7.29592 40.4218 8.65943H37.321ZM29.6901 4.29699C28.8136 4.29373 27.9697 4.62972 27.3353 5.2346L27.1789 4.48948H24.532V18.5L27.5358 17.8632L27.5478 14.4624C27.9801 14.7752 28.617 15.2195 29.6749 15.2195C31.8261 15.2195 33.7847 13.4895 33.7847 9.68046C33.7751 6.19548 31.7924 4.29699 29.6901 4.29699ZM28.9683 12.5759C28.2593 12.5759 27.839 12.3233 27.5502 12.0145L27.5382 7.55659C27.851 7.20849 28.2833 6.96787 28.9683 6.96787C30.0615 6.96787 30.8186 8.19343 30.8186 9.76789C30.8195 11.3744 30.0743 12.5759 28.9691 12.5759H28.9683ZM20.4014 3.58796L23.4172 2.93909V0.5L20.4014 1.13684V3.58796ZM20.4014 4.50151H23.4172V15.0158H20.4014V4.50151ZM17.1691 5.39021L16.975 4.50151H14.3811V15.015H17.3848V7.88945C18.0938 6.96386 19.2953 7.1323 19.6675 7.26464V4.50151C19.2841 4.35714 17.8781 4.09246 17.1691 5.39021ZM11.1608 1.89399L8.23242 2.52201L8.22039 12.1468C8.22039 13.925 9.55423 15.2348 11.3324 15.2348C12.3174 15.2348 13.0384 15.0543 13.4354 14.8386V12.3963C13.0512 12.5527 11.1528 13.1053 11.1528 11.3271V7.06091H13.4354V4.50151H11.1487L11.1608 1.89399ZM3.03823 7.55338C3.03823 7.08497 3.42242 6.90451 4.05926 6.90451C5.09871 6.92632 6.11882 7.18965 7.03895 7.67369V4.84801C6.09116 4.47468 5.08029 4.28759 4.06167 4.29699C1.62258 4.29699 0 5.57067 0 7.69775C0 11.0143 4.56617 10.4857 4.56617 11.915C4.56617 12.4676 4.08493 12.6481 3.4128 12.6481C2.41583 12.6481 1.14134 12.2399 0.132341 11.6856V14.5458C1.16813 14.994 2.2842 15.2271 3.4128 15.2308C5.91204 15.2308 7.63007 13.9932 7.63007 11.842C7.61643 8.26241 3.03823 8.89925 3.03823 7.55338Z" fill="#635BFF"/>
</svg>
